<svg width="138" height="68" viewBox="0 0 138 68" fill="none" xmlns="http://www.w3.org/2000/svg">
<g clip-path="url(#clip0_268_42)">
<path d="M106.564 60.7069C106.797 60.7069 106.972 60.9431 107.074 61.4155C108.605 65.4459 109.377 67.4981 109.392 67.6014V67.6605C109.392 67.8524 109.275 67.9705 109.027 68.0148H109.013C108.794 68.0148 108.634 67.7933 108.532 67.3652L107.672 65.1212H105.457L104.422 67.8967C104.32 67.9705 104.232 68.0148 104.16 68.0148H104.116C103.883 67.9705 103.751 67.8524 103.751 67.6457L104.393 65.8593C105.515 62.8771 106.127 61.2384 106.229 60.9136C106.346 60.7807 106.448 60.7217 106.55 60.7217L106.564 60.7069ZM106.564 62.1685L105.763 64.3535H107.395L106.579 62.1685H106.564Z" fill="#464A52"/>
<path d="M110.426 60.7069H110.499C110.732 60.7512 110.849 60.8545 110.849 61.0169V67.2471H111.242C111.403 67.2471 111.519 67.3652 111.563 67.6162C111.519 67.8819 111.403 68 111.199 68H110.455C110.266 68 110.135 67.8671 110.091 67.6162V61.1203C110.12 60.8398 110.222 60.7069 110.412 60.7069H110.426Z" fill="#464A52"/>
<path d="M112.86 60.6774H112.918C113.152 60.7217 113.268 60.8398 113.268 61.0169V63.5267C113.822 62.9805 114.449 62.7147 115.134 62.7147C115.819 62.7147 116.416 62.9657 116.955 63.4824C117.48 64.0434 117.742 64.6635 117.742 65.3574C117.742 66.3465 117.276 67.129 116.343 67.7047C115.95 67.9114 115.556 68.0148 115.177 68.0148H115.032C114.332 68.0148 113.676 67.6752 113.064 67.0108C112.7 66.5089 112.51 65.9184 112.51 65.2392V61.0317C112.51 60.8545 112.627 60.7512 112.86 60.6921V60.6774ZM113.254 65.2983V65.4016C113.254 66.1841 113.662 66.7746 114.478 67.1585C114.696 67.2175 114.9 67.2618 115.061 67.2618H115.177C115.935 67.2618 116.503 66.8485 116.897 66.0217C116.955 65.7707 116.999 65.5788 116.999 65.4459V65.3278C116.999 64.5454 116.591 63.9548 115.76 63.571C115.512 63.5119 115.308 63.4676 115.177 63.4676H115.104C114.347 63.4676 113.778 63.8663 113.385 64.6782C113.312 64.8997 113.268 65.1064 113.268 65.2983H113.254Z" fill="#464A52"/>
<path d="M121.152 62.7738C122.129 62.7738 122.901 63.261 123.47 64.2206C123.645 64.6192 123.732 65.0178 123.732 65.4459V67.6604C123.732 67.8524 123.615 67.9557 123.368 68H123.353C123.193 68 123.076 67.9114 122.989 67.7195L123.003 67.2175C122.45 67.7343 121.852 68 121.211 68H121.065C120.191 68 119.462 67.5571 118.879 66.6713C118.66 66.2432 118.558 65.815 118.558 65.3721C118.558 64.3977 119.025 63.63 119.972 63.0543C120.366 62.8624 120.759 62.7738 121.138 62.7738H121.152ZM119.302 65.3574V65.4164C119.302 66.1693 119.681 66.7451 120.438 67.129C120.672 67.2175 120.89 67.2618 121.08 67.2618H121.225C121.852 67.2618 122.362 66.9518 122.77 66.317C122.916 66.0217 122.989 65.7264 122.989 65.4607V65.3869C122.989 64.6487 122.639 64.0877 121.925 63.7039C121.677 63.5858 121.415 63.5415 121.152 63.5415H121.138C120.38 63.5415 119.812 63.9401 119.418 64.7373C119.345 64.9883 119.302 65.195 119.302 65.3721V65.3574Z" fill="#464A52"/>
<path d="M125.19 62.7738C125.423 62.8328 125.554 62.9509 125.554 63.0986V63.5119C126.093 63.01 126.691 62.759 127.347 62.759C128.061 62.759 128.687 63.0543 129.227 63.6596C129.62 64.1615 129.824 64.693 129.824 65.2392V67.6604C129.824 67.8228 129.708 67.9409 129.46 67.9852H129.445C129.212 67.9409 129.081 67.8228 129.081 67.6161V65.4755C129.081 64.5158 128.673 63.881 127.857 63.5858C127.653 63.5415 127.478 63.5119 127.332 63.5119H127.274C126.589 63.5119 126.064 63.8663 125.685 64.5897C125.583 64.8111 125.539 65.1507 125.539 65.6379V67.6457C125.539 67.8376 125.423 67.9409 125.175 67.9852H125.16C124.971 67.9852 124.854 67.8524 124.796 67.6014V63.2019C124.825 62.9066 124.956 62.759 125.175 62.759L125.19 62.7738Z" fill="#464A52"/>
<path d="M131.34 61.4303C131.588 61.4894 131.704 61.6075 131.704 61.7551V61.8732C131.704 62.0504 131.573 62.1685 131.311 62.198C131.136 62.198 131.019 62.0651 130.961 61.8141C131.005 61.5632 131.136 61.4303 131.34 61.4303ZM131.34 62.7442C131.588 62.8033 131.704 62.9214 131.704 63.069V67.6604C131.704 67.8524 131.588 67.9705 131.34 68.0148H131.325C131.136 68.0148 131.019 67.8819 130.961 67.6309V63.1871C130.99 62.8919 131.121 62.7442 131.34 62.7442Z" fill="#464A52"/>
<path d="M135.42 62.7738C136.397 62.7738 137.169 63.261 137.738 64.2206C137.912 64.6192 138 65.0178 138 65.4459V67.6604C138 67.8524 137.883 67.9557 137.636 68H137.621C137.461 68 137.344 67.9114 137.257 67.7195L137.271 67.2175C136.717 67.7343 136.12 68 135.479 68H135.333C134.458 68 133.73 67.5571 133.147 66.6713C132.928 66.2432 132.826 65.815 132.826 65.3721C132.826 64.3977 133.293 63.63 134.24 63.0543C134.633 62.8624 135.027 62.7738 135.406 62.7738H135.42ZM133.569 65.3574V65.4164C133.569 66.1693 133.948 66.7451 134.706 67.129C134.939 67.2175 135.158 67.2618 135.347 67.2618H135.493C136.12 67.2618 136.63 66.9518 137.038 66.317C137.184 66.0217 137.257 65.7264 137.257 65.4607V65.3869C137.257 64.6487 136.907 64.0877 136.193 63.7039C135.945 63.5858 135.683 63.5415 135.42 63.5415H135.406C134.648 63.5415 134.08 63.9401 133.686 64.7373C133.613 64.9883 133.569 65.195 133.569 65.3721V65.3574Z" fill="#464A52"/>
<path d="M66.792 25.5406V0H70.6249V10.3343H74.0644V0H77.8973V25.5406H74.0644V13.6709H70.6249V25.5406H66.792Z" fill="#5BBF8D"/>
<path d="M81.6865 25.5406V0H90.1394V3.35128H85.534V10.7772H89.9208V14.0547H85.534V22.1746H90.3143V25.5258H81.6865V25.5406Z" fill="#5BBF8D"/>
<path d="M91.655 25.5406L95.2548 0H100.326L104.145 25.5406H100.56L99.9621 20.9787H95.896L95.3568 25.5406H91.655ZM96.2604 17.8637H99.5541L97.8635 5.0343H97.8052L96.2604 17.8637Z" fill="#5BBF8D"/>
<path d="M106.418 25.5406V0H110.251V22.2336H115.104V25.5406H106.404H106.418Z" fill="#5BBF8D"/>
<path d="M118.077 25.5406V3.36604H115.134V0H124.738V3.36604H121.896V25.5406H118.077Z" fill="#5BBF8D"/>
<path d="M126.88 25.5406V0H130.713V10.3343H134.152V0H137.985V25.5406H134.152V13.6709H130.713V25.5406H126.88Z" fill="#5BBF8D"/>
<path d="M69.6922 56.3812V34.5758H66.792V31.2688H76.2359V34.5758H73.4523V56.3812H69.6922Z" fill="#464A52"/>
<path d="M78.3491 56.3812V31.2688H84.5867C85.8838 31.2688 86.8457 31.5197 87.4869 32.0365C88.1282 32.5532 88.5508 33.3061 88.7549 34.2953C88.9589 35.2844 89.0609 36.495 89.0609 37.9123C89.0609 39.3296 88.9152 40.5402 88.6237 41.3817C88.3322 42.2232 87.7201 42.7842 86.8165 43.0647C87.2538 43.1385 87.6035 43.3157 87.895 43.5962C88.1865 43.8767 88.4197 44.29 88.5946 44.8215C88.7694 45.353 88.9006 46.0469 88.9881 46.8884C89.0609 47.7299 89.1046 48.7633 89.1046 49.9739V50.7712C89.1046 51.2141 89.1046 51.7308 89.1046 52.3213C89.1046 52.9118 89.1046 53.5024 89.1192 54.0929C89.1192 54.6834 89.1484 55.1854 89.1629 55.5988C89.1775 56.0121 89.2067 56.2631 89.2358 56.3369H85.4612C85.4612 56.3369 85.4174 56.0417 85.4029 55.5988C85.3883 55.1559 85.3737 54.5949 85.3592 53.901C85.3592 53.2219 85.33 52.4837 85.33 51.6865C85.33 50.904 85.33 50.1216 85.33 49.3539V47.3165C85.33 46.5636 85.2717 46.0026 85.1697 45.6187C85.0677 45.2349 84.8636 44.9692 84.5722 44.8068C84.2807 44.6591 83.8726 44.5705 83.3334 44.541L82.1238 44.4672V56.3222H78.3491V56.3812ZM82.1383 41.5588H83.6394C84.1058 41.5588 84.441 41.4555 84.6888 41.2488C84.9365 41.0421 85.0968 40.6583 85.1843 40.0973C85.2717 39.5362 85.3154 38.7243 85.3154 37.6761V37.5137C85.3154 36.6279 85.2717 35.9488 85.1843 35.4763C85.0968 35.0039 84.9219 34.6791 84.6596 34.4872C84.3973 34.31 83.9746 34.2214 83.4063 34.2214H82.1238V41.5736L82.1383 41.5588Z" fill="#464A52"/>
<path d="M90.839 56.3812L94.3805 31.2688H99.3648L103.125 56.3812H99.5979L99.0004 51.9079H94.9926L94.4534 56.3812H90.8245H90.839ZM95.3715 48.8372H98.6069L96.9455 36.2293H96.8872L95.3715 48.8372Z" fill="#464A52"/>
<path d="M107.599 56.3812L103.751 31.2688H107.337L108.954 42.607L109.96 50.594H110.062L110.922 42.607L112.277 31.2688H115.804L112.263 56.3812H107.599Z" fill="#464A52"/>
<path d="M118.179 56.3812V31.2688H126.487V34.561H121.954V41.8689H126.268V45.0873H121.954V53.0742H126.661V56.3665H118.179V56.3812Z" fill="#464A52"/>
<path d="M129.445 56.3812V31.2688H133.22V53.1333H138V56.3812H129.445Z" fill="#464A52"/>
<path d="M33.2722 0C14.8945 0 0 15.0881 0 33.7047V56.3812H22.3855C40.7631 56.3812 55.6576 41.2931 55.6576 22.6765V0H33.2722ZM35.0064 37.7647L26.539 46.3422L23.7408 43.5076C21.8608 41.6031 21.8608 38.5028 23.7408 36.5984L28.6085 31.6674L26.4516 29.4824L20.5054 35.5059C17.0806 38.9753 11.5279 38.9753 8.10307 35.5059L30.6926 12.6227C34.1174 9.15328 39.6701 9.15328 43.0949 12.6227L32.8495 23.0013L35.2105 25.393C38.4313 28.8919 38.373 34.3543 35.021 37.7499L35.0064 37.7647ZM45.9077 24.02H44.5232V25.4225C44.5232 26.3378 43.7945 27.0908 42.8763 27.0908C41.9582 27.0908 41.2295 26.3526 41.2295 25.4225V24.02H39.845C38.9414 24.02 38.1981 23.2818 38.1981 22.3517C38.1981 21.4216 38.9268 20.6835 39.845 20.6835H41.2295V19.2809C41.2295 18.3656 41.9582 17.6127 42.8763 17.6127C43.7945 17.6127 44.5232 18.3508 44.5232 19.2809V20.6835H45.9077C46.8113 20.6835 47.5546 21.4216 47.5546 22.3517C47.5546 23.2818 46.8259 24.02 45.9077 24.02Z" fill="#5BBF8D"/>
</g>
<defs>
<clipPath id="clip0_268_42">
<rect width="138" height="68" fill="white"/>
</clipPath>
</defs>
</svg>
