<svg width="237" height="58" viewBox="0 0 237 58" fill="none" xmlns="http://www.w3.org/2000/svg">
<g id="LOGO">
<g id="Group 36">
<g id="Group 33">
<path id="Vector" d="M176.997 39.7848C177.439 39.7848 177.771 40.2162 177.97 41.1005C180.891 48.4985 182.351 52.2729 182.373 52.4455V52.5533C182.373 52.8984 182.152 53.1141 181.687 53.2004H181.643C181.223 53.2004 180.913 52.7906 180.736 51.9925L179.099 47.873H174.873L172.882 52.9847C172.683 53.1357 172.528 53.2004 172.373 53.2004H172.306C171.842 53.1141 171.621 52.8984 171.621 52.5318V52.4886L172.86 49.2318C175.006 43.775 176.178 40.7338 176.355 40.1299C176.577 39.8927 176.776 39.7632 176.975 39.7632L176.997 39.7848ZM176.997 42.4593L175.47 46.471H178.59V46.4279L177.041 42.4377H176.997V42.4593Z" fill="#464A52"/>
<path id="Vector_2" d="M184.364 39.7848H184.519C184.962 39.8711 185.183 40.0652 185.183 40.3456V51.7984H185.935C186.245 51.7984 186.466 52.0141 186.555 52.467C186.466 52.9416 186.245 53.1788 185.869 53.1788H184.453C184.077 53.1788 183.856 52.9416 183.767 52.467V40.5397C183.833 40.0221 184.033 39.7632 184.387 39.7632L184.364 39.7848Z" fill="#464A52"/>
<path id="Vector_3" d="M189.033 39.7418H189.144C189.586 39.828 189.807 40.0437 189.807 40.3457V44.9613C190.869 43.9692 192.064 43.4731 193.369 43.4731C194.675 43.4731 195.803 43.9476 196.865 44.8966C197.861 45.9103 198.348 47.0535 198.348 48.326C198.348 50.1377 197.463 51.5828 195.693 52.6181C194.918 52.9848 194.188 53.1789 193.48 53.1789H193.192C191.843 53.1789 190.604 52.575 189.453 51.3456C188.745 50.4181 188.391 49.3397 188.391 48.0887V40.3672C188.391 40.0653 188.613 39.8496 189.055 39.7633L189.033 39.7418ZM189.785 48.2182V48.3907C189.785 49.8358 190.56 50.9142 192.108 51.626C192.529 51.7338 192.905 51.7985 193.237 51.7985H193.458C194.896 51.7985 196.002 51.0436 196.732 49.5338C196.843 49.0809 196.909 48.7142 196.909 48.477V48.2613C196.909 46.8162 196.113 45.7378 194.542 45.026C194.055 44.9182 193.679 44.8535 193.414 44.8535H193.259C191.821 44.8535 190.714 45.6084 189.984 47.0966C189.829 47.5064 189.763 47.8946 189.763 48.2397L189.785 48.2182Z" fill="#464A52"/>
<path id="Vector_4" d="M204.852 43.5809C206.711 43.5809 208.193 44.4652 209.277 46.2553C209.609 46.9671 209.786 47.722 209.786 48.4985V52.5533C209.786 52.8984 209.565 53.1141 209.1 53.1788H209.056C208.746 53.1788 208.525 53.0063 208.37 52.6612V52.618L208.414 51.7553V51.7122C207.352 52.7043 206.224 53.1788 205.007 53.1788H204.719C203.06 53.1788 201.666 52.3592 200.538 50.72C200.14 49.922 199.94 49.1455 199.94 48.3259C199.94 46.5357 200.848 45.1338 202.64 44.0769C203.414 43.7318 204.144 43.5593 204.874 43.5593L204.852 43.5809ZM201.334 48.3043V48.4122C201.334 49.8141 202.042 50.8494 203.48 51.5612C203.945 51.7337 204.343 51.7984 204.697 51.7984H204.985C206.18 51.7984 207.153 51.2161 207.95 50.0514C208.237 49.4906 208.37 48.973 208.37 48.4769V48.3259C208.37 46.9887 207.684 45.9534 206.335 45.2416C205.87 45.0259 205.361 44.9397 204.852 44.9397H204.808C203.348 44.9397 202.264 45.673 201.533 47.1397C201.401 47.5926 201.312 47.9808 201.312 48.3043H201.334Z" fill="#464A52"/>
<path id="Vector_5" d="M212.53 43.5809C212.994 43.6887 213.215 43.9044 213.215 44.1848V44.9612C214.255 44.0554 215.384 43.5809 216.623 43.5809C217.972 43.5809 219.167 44.1416 220.229 45.2416C221.003 46.1691 221.38 47.1181 221.38 48.1318V52.5965C221.38 52.8984 221.158 53.0925 220.694 53.1788H220.649C220.185 53.0925 219.964 52.8769 219.964 52.5102V48.5847C219.964 46.8161 219.189 45.673 217.64 45.1122C217.264 45.0259 216.932 44.9612 216.623 44.9612H216.512C215.207 44.9612 214.211 45.6083 213.481 46.924C213.304 47.3338 213.193 47.9593 213.193 48.8436V52.5318C213.193 52.8769 212.972 53.0925 212.507 53.1572H212.463C212.087 53.1572 211.866 52.92 211.777 52.4455V44.3573C211.844 43.8181 212.065 43.5593 212.507 43.5593L212.53 43.5809Z" fill="#464A52"/>
<path id="Vector_6" d="M224.278 41.1008C224.743 41.2087 224.964 41.4028 224.964 41.7047V41.9204C224.964 42.244 224.72 42.4596 224.212 42.5243C223.88 42.5243 223.658 42.2871 223.548 41.8126C223.636 41.3381 223.88 41.1008 224.278 41.1008ZM224.278 43.4949C224.743 43.6028 224.964 43.7969 224.964 44.0988V52.5321C224.964 52.8772 224.743 53.0929 224.278 53.1792H224.234C223.858 53.1792 223.636 52.9419 223.548 52.4674V44.3145C223.614 43.7753 223.835 43.5165 224.278 43.5165V43.4949Z" fill="#464A52"/>
<path id="Vector_7" d="M232.066 43.5809C233.925 43.5809 235.407 44.4652 236.491 46.2553C236.823 46.9671 237 47.722 237 48.4985V52.5533C237 52.8984 236.779 53.1141 236.314 53.1788H236.27C235.96 53.1788 235.739 53.0063 235.584 52.6612V52.618L235.628 51.7553V51.7122C234.566 52.7043 233.438 53.1788 232.221 53.1788H231.933C230.274 53.1788 228.88 52.3592 227.752 50.72C227.353 49.922 227.154 49.1455 227.154 48.3259C227.154 46.5357 228.061 45.1338 229.854 44.0769C230.628 43.7318 231.358 43.5593 232.088 43.5593L232.066 43.5809ZM228.548 48.3043V48.4122C228.548 49.8141 229.256 50.8494 230.694 51.5612C231.159 51.7337 231.557 51.7984 231.911 51.7984H232.199C233.394 51.7984 234.367 51.2161 235.164 50.0514C235.451 49.4906 235.584 48.973 235.584 48.4769V48.3259C235.584 46.9887 234.898 45.9534 233.548 45.2416C233.084 45.0259 232.575 44.9397 232.066 44.9397H232.022C230.562 44.9397 229.477 45.673 228.747 47.1397C228.615 47.5926 228.526 47.9808 228.526 48.3043H228.548Z" fill="#464A52"/>
</g>
<g id="Group 34">
<path id="Vector_8" d="M71.9905 31.8921V4.8334H76.2121V15.7906H79.9939V4.8334H84.2155V31.8921H79.9939V19.3059H76.2121V31.8921H71.9905Z" fill="#5BBF8D"/>
<path id="Vector_9" d="M88.3843 31.8921V4.83334H97.6894V8.38287H92.6059V16.2536H97.4255V19.7345H92.6059V28.3425H97.8828V31.8921H88.3843Z" fill="#5BBF8D"/>
<path id="Vector_10" d="M99.3779 31.8921L103.336 4.83334H108.912L113.116 31.8921H109.176L108.507 27.0565H104.022L103.424 31.8921H99.3604H99.3779ZM104.461 23.7642H108.085L106.22 10.1662H106.15L104.444 23.7642H104.461Z" fill="#5BBF8D"/>
<path id="Vector_11" d="M115.631 31.8921V4.83334H119.853V28.394H125.2V31.8921H115.631Z" fill="#5BBF8D"/>
<path id="Vector_12" d="M128.472 31.8921V8.40002H125.218V4.83334H135.807V8.40002H132.676V31.8921H128.472Z" fill="#5BBF8D"/>
<path id="Vector_13" d="M138.181 31.8921V4.83334H142.403V15.7906H146.185V4.83334H150.406V31.8921H146.185V19.3058H142.403V31.8921H138.181Z" fill="#5BBF8D"/>
</g>
<g id="Group 35">
<path id="Vector_14" d="M161.746 31.669V8.55421H158.545V5.03897H168.958V8.55421H165.88V31.669H161.746Z" fill="#464A52"/>
<path id="Vector_15" d="M171.28 31.6691V5.05621H178.158C179.582 5.05621 180.655 5.33057 181.359 5.87929C182.063 6.42801 182.52 7.2168 182.749 8.26279C182.977 9.30879 183.083 10.5949 183.083 12.1038C183.083 13.6128 182.925 14.8989 182.59 15.7905C182.256 16.6822 181.605 17.2824 180.603 17.5739C181.078 17.6596 181.482 17.8482 181.799 18.1397C182.115 18.4313 182.379 18.8771 182.573 19.443C182.766 20.0088 182.907 20.7462 182.995 21.6378C183.083 22.5295 183.136 23.6269 183.136 24.913V25.7532C183.136 26.2162 183.136 26.7649 183.136 27.3994C183.136 28.0339 183.136 28.6512 183.153 29.2856C183.153 29.9029 183.171 30.4516 183.206 30.8803C183.241 31.309 183.259 31.5834 183.276 31.6691H179.125C179.125 31.6691 179.072 31.3605 179.055 30.8975C179.055 30.4345 179.02 29.8343 179.002 29.097C179.002 28.3768 178.984 27.588 178.967 26.7478C178.967 25.9076 178.967 25.0845 178.967 24.2785V22.118C178.967 21.3292 178.914 20.7119 178.791 20.3175C178.668 19.9059 178.457 19.6316 178.14 19.4601C177.823 19.3058 177.366 19.2029 176.786 19.1686L175.449 19.1V31.6691H171.298H171.28ZM175.449 15.962H177.102C177.612 15.962 177.999 15.8591 178.263 15.6362C178.527 15.4133 178.703 15.0018 178.809 14.4187C178.914 13.8186 178.949 12.9612 178.949 11.8466V11.6751C178.949 10.732 178.896 10.0118 178.809 9.51456C178.721 9.01728 178.527 8.65719 178.228 8.46856C177.929 8.27994 177.472 8.17706 176.856 8.17706H175.449V15.962Z" fill="#464A52"/>
<path id="Vector_16" d="M185.035 31.6691L188.923 5.05621H194.411L198.545 31.6691H194.675L194.024 26.9193H189.609L189.011 31.6691H185H185.035ZM190.031 23.6612H193.602L191.772 10.2862H191.702L190.031 23.6612Z" fill="#464A52"/>
<path id="Vector_17" d="M203.505 31.6691L199.266 5.05621H203.223L205 17.0766L206.108 25.5475H206.214L207.164 17.0766L208.659 5.05621H212.546L208.659 31.6691H203.522H203.505Z" fill="#464A52"/>
<path id="Vector_18" d="M215.149 31.6691V5.05621H224.296V8.5543H219.301V16.305H224.05V19.7173H219.301V28.1882H224.49V31.6863H215.149V31.6691Z" fill="#464A52"/>
<path id="Vector_19" d="M227.568 31.6691V5.05621H231.719V28.2225H236.979V31.6691H227.568Z" fill="#464A52"/>
</g>
</g>
<path id="Vector_20" d="M35.3993 0C37.5227 0 39.2488 1.68271 39.2488 3.75271V12.9008C39.2488 16.6802 42.3997 19.7518 46.2766 19.7518H55.6608C57.7842 19.7518 59.5103 21.4345 59.5103 23.4911V34.4955C59.5103 36.5655 57.7842 38.2482 55.6608 38.2482H46.2766C42.3997 38.2482 39.2488 41.3198 39.2488 45.0992V54.2473C39.2488 56.3173 37.5227 58 35.3993 58H29.8784C30.5908 56.9717 31.0018 55.7297 31.0018 54.3942V38.3283C31.6046 38.4886 32.2073 38.6622 32.8238 38.8358C32.8238 38.8358 32.8512 38.8358 32.8649 38.8625H32.9471C32.9471 38.4352 32.9471 37.9811 32.9471 37.5538C32.9471 37.4469 32.8923 37.3534 32.8101 37.2867C32.221 36.8727 31.6457 36.432 31.0703 36.018C30.9607 35.9512 30.9059 35.8443 30.9059 35.7108C30.9059 34.0414 30.9059 32.3721 30.9059 30.6894V30.4757C33.6184 31.3037 36.3172 32.1184 39.016 32.9464C39.016 32.332 39.016 31.7578 39.016 31.1835C39.016 31.05 38.9338 30.9164 38.8242 30.8363C36.235 29.2738 33.6595 27.6979 31.0977 26.1487C30.9059 26.0152 30.8922 25.895 30.9059 25.6279C30.9196 24.8934 30.9059 21.5413 30.9059 20.5531C30.9059 19.5648 29.7003 18.7769 28.7551 19.2577C28.1386 19.5648 27.8783 20.0589 27.8783 20.7133V25.8015C27.8783 25.9351 27.7961 26.0686 27.6865 26.1487C26.8783 26.6295 26.0837 27.1236 25.2754 27.6178C23.4808 28.6995 21.7136 29.7946 19.919 30.8764C19.8505 30.9164 19.782 30.9965 19.782 31.05C19.782 31.6776 19.782 32.292 19.782 32.9464C22.4944 32.1184 25.1932 31.3037 27.892 30.4757C27.892 30.5558 27.892 30.5825 27.892 30.6093C27.892 32.332 27.892 34.0414 27.892 35.7642C27.892 35.8443 27.8509 35.9111 27.7824 35.9645C27.1934 36.4053 26.5906 36.846 25.9878 37.2733C25.9056 37.3401 25.8508 37.4336 25.8508 37.5404C25.8508 37.9678 25.8508 38.4218 25.8508 38.8492H25.933C26.481 38.6889 27.0427 38.5287 27.5906 38.3684C27.7276 38.3283 27.8783 38.2883 28.0153 38.2482V54.2339C28.0153 56.3039 26.2892 57.9866 24.1795 57.9866C22.0698 57.9866 20.3299 56.3039 20.3299 54.2339V45.0859C20.3299 41.3065 17.1791 38.2349 13.3021 38.2349H3.84954C1.72613 38.2349 0 36.5522 0 34.4822V23.4778C0 21.4211 1.72613 19.7384 3.84954 19.7384H13.2336C17.1106 19.7384 20.2614 16.6668 20.2614 12.8874V3.75271C20.2614 1.68271 21.9876 0 24.111 0H35.3856H35.3993Z" fill="#5BBF8D"/>
</g>
</svg>
